<svg width="48" height="63" viewBox="0 0 48 63" fill="none" xmlns="http://www.w3.org/2000/svg">
<path d="M32.1443 54.569C28.4327 59.7785 26.5769 62.3832 24 62.3832C21.4231 62.3832 19.5673 59.7785 15.8557 54.569L10.1442 46.5526C5.21211 39.6301 2.74606 36.1688 4.14243 33.4594C5.53881 30.75 9.78871 30.75 18.2885 30.75L29.7115 30.75C38.2113 30.75 42.4612 30.75 43.8576 33.4594C45.2539 36.1688 42.7879 39.6301 37.8558 46.5526L32.1443 54.569Z" fill="#6A5ACD"/>
<g clip-path="url(#clip0_532_2321)">
<mask id="mask0_532_2321" style="mask-type:luminance" maskUnits="userSpaceOnUse" x="0" y="0" width="48" height="48">
<path d="M48 0H0V48H48V0Z" fill="white"/>
</mask>
<g mask="url(#mask0_532_2321)">
<path d="M48 0H0V48H48V0Z" fill="#6A5ACD"/>
<path d="M12.2071 22.9087C12.0766 22.6342 11.8876 22.4227 11.6401 22.2742C11.3926 22.1212 11.1046 22.0447 10.7761 22.0447C10.4476 22.0447 10.1506 22.1212 9.88507 22.2742C9.62407 22.4227 9.41707 22.6387 9.26407 22.9222C9.11557 23.2012 9.04132 23.5252 9.04132 23.8942C9.04132 24.2632 9.11557 24.5872 9.26407 24.8662C9.41707 25.1452 9.62407 25.3612 9.88507 25.5142C10.1506 25.6627 10.4476 25.737 10.7761 25.737C11.2351 25.737 11.6131 25.5997 11.9101 25.3252C12.2071 25.0507 12.3803 24.6795 12.4298 24.2115H10.5533V23.712H13.0846V24.1845C13.0486 24.5715 12.9271 24.927 12.7201 25.251C12.5131 25.5705 12.2408 25.8247 11.9033 26.0137C11.5658 26.1982 11.1901 26.2905 10.7761 26.2905C10.3396 26.2905 9.94132 26.1892 9.58132 25.9867C9.22132 25.7797 8.93557 25.494 8.72407 25.1295C8.51707 24.765 8.41357 24.3532 8.41357 23.8942C8.41357 23.4352 8.51707 23.0235 8.72407 22.659C8.93557 22.29 9.22132 22.0042 9.58132 21.8017C9.94132 21.5947 10.3396 21.4912 10.7761 21.4912C11.2756 21.4912 11.7166 21.615 12.0991 21.8625C12.4861 22.11 12.7673 22.4587 12.9428 22.9087H12.2071ZM15.4695 26.3107C15.123 26.3107 14.808 26.232 14.5245 26.0745C14.2455 25.917 14.025 25.6942 13.863 25.4062C13.7055 25.1137 13.6267 24.7762 13.6267 24.3937C13.6267 24.0157 13.7077 23.6827 13.8697 23.3947C14.0362 23.1022 14.2612 22.8795 14.5447 22.7265C14.8282 22.569 15.1455 22.4902 15.4965 22.4902C15.8475 22.4902 16.1647 22.569 16.4482 22.7265C16.7317 22.8795 16.9545 23.1 17.1165 23.388C17.283 23.676 17.3662 24.0112 17.3662 24.3937C17.3662 24.7762 17.2807 25.1137 17.1097 25.4062C16.9432 25.6942 16.716 25.917 16.428 26.0745C16.14 26.232 15.8205 26.3107 15.4695 26.3107ZM15.4695 25.7707C15.69 25.7707 15.897 25.719 16.0905 25.6155C16.284 25.512 16.4392 25.3567 16.5562 25.1497C16.6777 24.9427 16.7385 24.6907 16.7385 24.3937C16.7385 24.0967 16.68 23.8447 16.563 23.6377C16.446 23.4307 16.293 23.2777 16.104 23.1787C15.915 23.0752 15.7102 23.0235 15.4897 23.0235C15.2647 23.0235 15.0577 23.0752 14.8687 23.1787C14.6842 23.2777 14.5357 23.4307 14.4232 23.6377C14.3107 23.8447 14.2545 24.0967 14.2545 24.3937C14.2545 24.6952 14.3085 24.9495 14.4165 25.1565C14.529 25.3635 14.6775 25.5187 14.862 25.6222C15.0465 25.7212 15.249 25.7707 15.4695 25.7707ZM19.7466 26.3107C19.4001 26.3107 19.0851 26.232 18.8016 26.0745C18.5226 25.917 18.3021 25.6942 18.1401 25.4062C17.9826 25.1137 17.9038 24.7762 17.9038 24.3937C17.9038 24.0157 17.9848 23.6827 18.1468 23.3947C18.3133 23.1022 18.5383 22.8795 18.8218 22.7265C19.1053 22.569 19.4226 22.4902 19.7736 22.4902C20.1246 22.4902 20.4418 22.569 20.7253 22.7265C21.0088 22.8795 21.2316 23.1 21.3936 23.388C21.5601 23.676 21.6433 24.0112 21.6433 24.3937C21.6433 24.7762 21.5578 25.1137 21.3868 25.4062C21.2203 25.6942 20.9931 25.917 20.7051 26.0745C20.4171 26.232 20.0976 26.3107 19.7466 26.3107ZM19.7466 25.7707C19.9671 25.7707 20.1741 25.719 20.3676 25.6155C20.5611 25.512 20.7163 25.3567 20.8333 25.1497C20.9548 24.9427 21.0156 24.6907 21.0156 24.3937C21.0156 24.0967 20.9571 23.8447 20.8401 23.6377C20.7231 23.4307 20.5701 23.2777 20.3811 23.1787C20.1921 23.0752 19.9873 23.0235 19.7668 23.0235C19.5418 23.0235 19.3348 23.0752 19.1458 23.1787C18.9613 23.2777 18.8128 23.4307 18.7003 23.6377C18.5878 23.8447 18.5316 24.0967 18.5316 24.3937C18.5316 24.6952 18.5856 24.9495 18.6936 25.1565C18.8061 25.3635 18.9546 25.5187 19.1391 25.6222C19.3236 25.7212 19.5261 25.7707 19.7466 25.7707ZM23.0247 23.1517C23.1327 22.9402 23.2857 22.776 23.4837 22.659C23.6862 22.542 23.9315 22.4835 24.2195 22.4835V23.118H24.0575C23.369 23.118 23.0247 23.4915 23.0247 24.2385V26.25H22.4105V22.551H23.0247V23.1517ZM26.5013 26.3107C26.1548 26.3107 25.8398 26.232 25.5563 26.0745C25.2773 25.917 25.0568 25.6942 24.8948 25.4062C24.7373 25.1137 24.6585 24.7762 24.6585 24.3937C24.6585 24.0157 24.7395 23.6827 24.9015 23.3947C25.068 23.1022 25.293 22.8795 25.5765 22.7265C25.86 22.569 26.1773 22.4902 26.5283 22.4902C26.8793 22.4902 27.1965 22.569 27.48 22.7265C27.7635 22.8795 27.9863 23.1 28.1483 23.388C28.3148 23.676 28.398 24.0112 28.398 24.3937C28.398 24.7762 28.3125 25.1137 28.1415 25.4062C27.975 25.6942 27.7478 25.917 27.4598 26.0745C27.1718 26.232 26.8523 26.3107 26.5013 26.3107ZM26.5013 25.7707C26.7218 25.7707 26.9288 25.719 27.1223 25.6155C27.3158 25.512 27.471 25.3567 27.588 25.1497C27.7095 24.9427 27.7703 24.6907 27.7703 24.3937C27.7703 24.0967 27.7118 23.8447 27.5948 23.6377C27.4778 23.4307 27.3248 23.2777 27.1358 23.1787C26.9468 23.0752 26.742 23.0235 26.5215 23.0235C26.2965 23.0235 26.0895 23.0752 25.9005 23.1787C25.716 23.2777 25.5675 23.4307 25.455 23.6377C25.3425 23.8447 25.2863 24.0967 25.2863 24.3937C25.2863 24.6952 25.3403 24.9495 25.4483 25.1565C25.5608 25.3635 25.7093 25.5187 25.8938 25.6222C26.0783 25.7212 26.2808 25.7707 26.5013 25.7707ZM30.7784 26.3107C30.4319 26.3107 30.1169 26.232 29.8334 26.0745C29.5544 25.917 29.3339 25.6942 29.1719 25.4062C29.0144 25.1137 28.9357 24.7762 28.9357 24.3937C28.9357 24.0157 29.0167 23.6827 29.1787 23.3947C29.3452 23.1022 29.5702 22.8795 29.8537 22.7265C30.1372 22.569 30.4544 22.4902 30.8054 22.4902C31.1564 22.4902 31.4737 22.569 31.7572 22.7265C32.0407 22.8795 32.2634 23.1 32.4254 23.388C32.5919 23.676 32.6752 24.0112 32.6752 24.3937C32.6752 24.7762 32.5897 25.1137 32.4187 25.4062C32.2522 25.6942 32.0249 25.917 31.7369 26.0745C31.4489 26.232 31.1294 26.3107 30.7784 26.3107ZM30.7784 25.7707C30.9989 25.7707 31.2059 25.719 31.3994 25.6155C31.5929 25.512 31.7482 25.3567 31.8652 25.1497C31.9867 24.9427 32.0474 24.6907 32.0474 24.3937C32.0474 24.0967 31.9889 23.8447 31.8719 23.6377C31.7549 23.4307 31.6019 23.2777 31.4129 23.1787C31.2239 23.0752 31.0192 23.0235 30.7987 23.0235C30.5737 23.0235 30.3667 23.0752 30.1777 23.1787C29.9932 23.2777 29.8447 23.4307 29.7322 23.6377C29.6197 23.8447 29.5634 24.0967 29.5634 24.3937C29.5634 24.6952 29.6174 24.9495 29.7254 25.1565C29.8379 25.3635 29.9864 25.5187 30.1709 25.6222C30.3554 25.7212 30.5579 25.7707 30.7784 25.7707ZM37.8905 22.4835C38.1785 22.4835 38.435 22.5442 38.66 22.6657C38.885 22.7827 39.0627 22.9605 39.1932 23.199C39.3237 23.4375 39.389 23.7277 39.389 24.0697V26.25H38.7815V24.1575C38.7815 23.7885 38.6892 23.5072 38.5047 23.3137C38.3247 23.1157 38.0795 23.0167 37.769 23.0167C37.4496 23.0167 37.1953 23.1202 37.0063 23.3272C36.8173 23.5297 36.7228 23.8245 36.7228 24.2115V26.25H36.1153V24.1575C36.1153 23.7885 36.0231 23.5072 35.8386 23.3137C35.6586 23.1157 35.4133 23.0167 35.1028 23.0167C34.7833 23.0167 34.5291 23.1202 34.3401 23.3272C34.1511 23.5297 34.0566 23.8245 34.0566 24.2115V26.25H33.4423V22.551H34.0566V23.0842C34.1781 22.8907 34.3401 22.7422 34.5426 22.6387C34.7496 22.5352 34.9768 22.4835 35.2243 22.4835C35.5348 22.4835 35.8093 22.5532 36.0478 22.6927C36.2863 22.8322 36.4641 23.037 36.5811 23.307C36.6846 23.046 36.8556 22.8435 37.0941 22.6995C37.3326 22.5555 37.598 22.4835 37.8905 22.4835Z" fill="#FBFBFB"/>
<path d="M22.5 20.25L30.75 14.625" stroke="#FBFBFB" stroke-width="1.5" stroke-linecap="round"/>
<path d="M30.75 14.625L39 20.25" stroke="#FBFBFB" stroke-width="1.5" stroke-linecap="round"/>
</g>
<mask id="mask1_532_2321" style="mask-type:luminance" maskUnits="userSpaceOnUse" x="5" y="13" width="39" height="17">
<path d="M5 13H43.25V29.875H5V13Z" fill="#FBFBFB"/>
</mask>
<g mask="url(#mask1_532_2321)">
<path d="M43.25 29.425H5V30.325H43.25V29.425Z" fill="#FBFBFB"/>
</g>
</g>
<defs>
<clipPath id="clip0_532_2321">
<rect width="48" height="48" rx="24" fill="white"/>
</clipPath>
</defs>
</svg>
